<?xml version="1.0" encoding="UTF-8" standalone="no"?>
<!DOCTYPE svg PUBLIC "-//W3C//DTD SVG 1.1//EN" "http://www.w3.org/Graphics/SVG/1.1/DTD/svg11.dtd">
<svg width="100%" height="100%" viewBox="0 0 313 124" version="1.1" xmlns="http://www.w3.org/2000/svg" xmlns:xlink="http://www.w3.org/1999/xlink" xml:space="preserve" xmlns:serif="http://www.serif.com/" style="fill-rule:evenodd;clip-rule:evenodd;stroke-linejoin:round;stroke-miterlimit:2;">
    <path d="M262.934,61.636C262.934,68.591 268.193,73.836 275.171,73.836L275.178,73.836C279.475,73.836 282.912,72.021 285.119,68.584L285.312,68.28L281.008,65.317L280.801,65.636C279.319,67.895 277.638,68.858 275.178,68.858C271.341,68.858 268.563,65.851 268.563,61.636C268.563,57.421 271.282,54.48 275.178,54.48C277.452,54.48 279.327,55.495 280.452,57.324L280.66,57.658L284.897,54.65L284.704,54.354C282.593,51.073 279.475,49.472 275.171,49.472C268.193,49.472 262.934,54.68 262.934,61.636ZM240.608,49.747L246.504,49.747L250.571,58.85C251.104,60.065 251.66,61.769 252.015,62.91C252.348,61.784 252.889,60.102 253.452,58.85L257.415,49.754L262.83,49.754L252.408,73.747L251.452,73.747L240.608,49.747Z" style="fill:white;"/>
    <path d="M0.002,0.248L1.949,0.248L59.427,67.451L116.374,0.248L118.32,0.248L118.32,121.748L100.459,121.748L100.459,59.321C100.459,52.778 101.17,42.522 101.17,42.163C100.818,42.515 95.159,51.184 90.382,56.491L60.138,92.927L58.02,92.927L27.776,56.491C23.352,51.364 17.692,42.874 17.168,42.163C17.168,42.515 17.872,52.771 17.872,59.321L17.872,121.748L0.002,121.748L0.002,0.248Z" style="fill:white;fill-rule:nonzero;"/>
    <path d="M200.908,61.612C200.908,25.708 228.495,0.068 262.631,0.068C284.206,0.068 300.122,8.026 310.737,23.941L296.409,34.197C289.686,23.762 278.367,16.867 262.631,16.867C237.695,16.867 220.013,35.964 220.013,61.612C220.013,87.259 237.695,106.528 262.631,106.528C279.258,106.528 290.397,99.102 298.175,87.603L312.504,97.687C302.068,113.602 285.09,123.327 262.631,123.327C228.495,123.327 200.908,97.507 200.908,61.604L200.908,61.612Z" style="fill:white;fill-rule:nonzero;"/>
    <path d="M181.327,121.752L181.327,109.046C174.894,119.111 163.345,123.235 151.297,123.235C136.449,123.235 123.742,115.319 123.742,99.805C123.742,85.29 135.125,77.699 149.973,75.058L180.328,69.942L180.328,66.476C180.328,55.752 172.412,51.628 161.356,51.628C150.299,51.628 144.032,56.085 143.374,64.493L126.543,64.493C127.368,47.004 142.383,38.755 161.356,38.755C183.136,38.755 196.501,47.829 196.501,68.126L196.501,121.745L181.32,121.745L181.327,121.752ZM180.335,87.439L180.335,82.323L154.763,86.614C144.698,88.43 140.081,92.388 140.081,99.646C140.081,106.079 145.363,110.37 154.93,110.37C167.636,110.37 180.335,103.112 180.335,87.439Z" style="fill:rgb(194,194,194);fill-rule:nonzero;"/>
</svg>
