<svg width="313" height="124" viewBox="0 0 313 124" fill="none" xmlns="http://www.w3.org/2000/svg">
<path fill-rule="evenodd" clip-rule="evenodd" d="M262.934 61.6356C262.934 68.5912 268.193 73.8357 275.171 73.8357H275.178C279.475 73.8357 282.912 72.0209 285.119 68.5838L285.312 68.2801L281.008 65.3171L280.801 65.6357C279.319 67.8949 277.638 68.8579 275.178 68.8579C271.341 68.8579 268.563 65.8505 268.563 61.6356C268.563 57.4207 271.282 54.48 275.178 54.48C277.452 54.48 279.327 55.4948 280.452 57.3244L280.66 57.6578L284.897 54.6503L284.704 54.354C282.593 51.0725 279.475 49.4725 275.171 49.4725C268.193 49.4725 262.934 54.68 262.934 61.6356ZM240.608 49.7466H246.504L250.571 58.8504C251.104 60.0652 251.66 61.7689 252.015 62.9097C252.348 61.7838 252.889 60.1023 253.452 58.8504L257.415 49.754H262.83L252.408 73.7469H251.452L240.608 49.7466Z" fill="#080808" style="fill:#080808;fill:color(display-p3 0.0324 0.0324 0.0324);fill-opacity:1;"/>
<path d="M0.0020752 0.248032H1.94851L59.427 67.4509L116.374 0.248032H118.32V121.748H100.459V59.3212C100.459 52.7784 101.17 42.5224 101.17 42.1629C100.818 42.5146 95.1586 51.1837 90.3824 56.4914L60.1384 92.9265H58.0199L27.7759 56.4914C23.3515 51.3635 17.692 42.8742 17.1682 42.1629C17.1682 42.5146 17.8718 52.7705 17.8718 59.3212V121.748H0.0020752V0.248032Z" fill="#080808" style="fill:#080808;fill:color(display-p3 0.0324 0.0324 0.0324);fill-opacity:1;"/>
<path d="M200.908 61.6115C200.908 25.708 228.495 0.068161 262.631 0.068161C284.206 0.068161 300.122 8.02588 310.737 23.9413L296.409 34.1972C289.686 23.7615 278.367 16.8669 262.631 16.8669C237.695 16.8669 220.013 35.9639 220.013 61.6115C220.013 87.2591 237.695 106.528 262.631 106.528C279.258 106.528 290.397 99.1019 298.175 87.6031L312.504 97.687C302.068 113.602 285.09 123.327 262.631 123.327C228.495 123.327 200.908 97.5072 200.908 61.6037V61.6115Z" fill="#080808" style="fill:#080808;fill:color(display-p3 0.0324 0.0324 0.0324);fill-opacity:1;"/>
<path d="M181.327 121.752V109.046C174.894 119.111 163.345 123.235 151.297 123.235C136.449 123.235 123.742 115.319 123.742 99.8052C123.742 85.2896 135.125 77.699 149.973 75.0579L180.328 69.9421V66.4761C180.328 55.7523 172.412 51.6277 161.356 51.6277C150.299 51.6277 144.032 56.085 143.374 64.4935H126.543C127.368 47.0041 142.383 38.755 161.356 38.755C183.136 38.755 196.501 47.829 196.501 68.1259V121.745H181.32L181.327 121.752ZM180.335 87.4385V82.3227L154.763 86.6136C144.698 88.4298 140.081 92.388 140.081 99.6458C140.081 106.079 145.363 110.37 154.93 110.37C167.636 110.37 180.335 103.112 180.335 87.4385Z" fill="#ffffff" style="fill:#ffffff;fill:color(display-p3 1.0000 1.0 1.0);fill-opacity:1;"/>
</svg>
